HIERARCHY
ROOT __0
{
	OFFSET 0.0 0.0 0.0
	CHANNELS 0
	JOINT root
	{
		OFFSET 0.000000 0.000000 0.686332
		CHANNELS 6 Xposition Yposition Zposition Xrotation Yrotation Zrotation
		JOINT stomach
		{
			OFFSET -0.000000 -0.009852 0.148941
			CHANNELS 3 Xrotation Yrotation Zrotation
			JOINT chest
			{
				OFFSET 0.000000 0.009852 0.193749
				CHANNELS 3 Xrotation Yrotation Zrotation
				JOINT neck
				{
					OFFSET 0.000000 0.016419 0.108368
					CHANNELS 3 Xrotation Yrotation Zrotation
					JOINT head
					{
						OFFSET 0.000000 0.003284 0.065678
						CHANNELS 3 Xrotation Yrotation Zrotation
						End Site
						{
							OFFSET 0.000000 -0.006568 0.144491
						}
					}
				}
				JOINT shoulder.l
				{
					OFFSET 0.049258 0.016419 0.064433
					CHANNELS 6 Xposition Yposition Zposition Xrotation Yrotation Zrotation
					JOINT upperArm.l
					{
						OFFSET 0.078005 0.002356 -0.003479
						CHANNELS 3 Xrotation Yrotation Zrotation
						JOINT lowerArm.l
						{
							OFFSET 0.102116 0.009832 -0.170630
							CHANNELS 3 Xrotation Yrotation Zrotation
							JOINT hand.l
							{
								OFFSET 0.093442 -0.009832 -0.155603
								CHANNELS 3 Xrotation Yrotation Zrotation
								JOINT pinky.1.l
								{
									OFFSET 0.032886 0.037117 -0.043691
									CHANNELS 6 Xposition Yposition Zposition Xrotation Yrotation Zrotation
									JOINT pinky.2.l
									{
										OFFSET 0.013770 0.002914 -0.026772
										CHANNELS 3 Xrotation Yrotation Zrotation
										JOINT pinky.3.l
										{
											OFFSET 0.013770 0.002152 -0.022966
											CHANNELS 3 Xrotation Yrotation Zrotation
											End Site
											{
												OFFSET 0.013770 0.002914 -0.026772
											}
										}
									}
								}
								JOINT ring.1.l
								{
									OFFSET 0.040882 0.020425 -0.056191
									CHANNELS 6 Xposition Yposition Zposition Xrotation Yrotation Zrotation
									JOINT ring.2.l
									{
										OFFSET 0.013770 0.002914 -0.026773
										CHANNELS 3 Xrotation Yrotation Zrotation
										JOINT ring.3.l
										{
											OFFSET 0.013770 0.000630 -0.024489
											CHANNELS 3 Xrotation Yrotation Zrotation
											End Site
											{
												OFFSET 0.013770 0.002914 -0.026772
											}
										}
									}
								}
								JOINT middle.1.l
								{
									OFFSET 0.038217 0.005622 -0.058622
									CHANNELS 6 Xposition Yposition Zposition Xrotation Yrotation Zrotation
									JOINT middle.2.l
									{
										OFFSET 0.018656 0.000761 -0.027137
										CHANNELS 3 Xrotation Yrotation Zrotation
										JOINT middle.3.l
										{
											OFFSET 0.013921 0.000000 -0.024966
											CHANNELS 3 Xrotation Yrotation Zrotation
											End Site
											{
												OFFSET 0.018657 0.002284 -0.035511
											}
										}
									}
								}
								JOINT index.1.l
								{
									OFFSET 0.030221 -0.008419 -0.052973
									CHANNELS 6 Xposition Yposition Zposition Xrotation Yrotation Zrotation
									JOINT index.2.l
									{
										OFFSET 0.015991 -0.001523 -0.026523
										CHANNELS 3 Xrotation Yrotation Zrotation
										JOINT index.3.l
										{
											OFFSET 0.015991 -0.000761 -0.023478
											CHANNELS 3 Xrotation Yrotation Zrotation
											End Site
											{
												OFFSET 0.015991 0.000000 -0.031091
											}
										}
									}
								}
								JOINT thumb.1.l
								{
									OFFSET -0.000231 -0.020189 -0.000927
									CHANNELS 6 Xposition Yposition Zposition Xrotation Yrotation Zrotation
									JOINT thumb.2.l
									{
										OFFSET 0.017990 -0.019907 -0.028663
										CHANNELS 3 Xrotation Yrotation Zrotation
										End Site
										{
											OFFSET 0.014833 -0.018329 -0.023927
										}
									}
								}
							}
						}
					}
				}
				JOINT shoulder.r
				{
					OFFSET -0.049258 0.016419 0.064433
					CHANNELS 6 Xposition Yposition Zposition Xrotation Yrotation Zrotation
					JOINT upperArm.r
					{
						OFFSET -0.078005 0.002356 -0.003479
						CHANNELS 3 Xrotation Yrotation Zrotation
						JOINT lowerArm.r
						{
							OFFSET -0.102116 0.009832 -0.170630
							CHANNELS 3 Xrotation Yrotation Zrotation
							JOINT hand.r
							{
								OFFSET -0.093442 -0.009832 -0.155603
								CHANNELS 3 Xrotation Yrotation Zrotation
								JOINT pinky.1.r
								{
									OFFSET -0.032886 0.037117 -0.043691
									CHANNELS 6 Xposition Yposition Zposition Xrotation Yrotation Zrotation
									JOINT pinky.2.r
									{
										OFFSET -0.013770 0.002914 -0.026772
										CHANNELS 3 Xrotation Yrotation Zrotation
										JOINT pinky.3.r
										{
											OFFSET -0.013770 0.002152 -0.022966
											CHANNELS 3 Xrotation Yrotation Zrotation
											End Site
											{
												OFFSET -0.013770 0.002914 -0.026772
											}
										}
									}
								}
								JOINT ring.1.r
								{
									OFFSET -0.040882 0.020425 -0.056191
									CHANNELS 6 Xposition Yposition Zposition Xrotation Yrotation Zrotation
									JOINT ring.2.r
									{
										OFFSET -0.013770 0.002914 -0.026773
										CHANNELS 3 Xrotation Yrotation Zrotation
										JOINT ring.3.r
										{
											OFFSET -0.013770 0.000630 -0.024489
											CHANNELS 3 Xrotation Yrotation Zrotation
											End Site
											{
												OFFSET -0.013770 0.002914 -0.026772
											}
										}
									}
								}
								JOINT middle.1.r
								{
									OFFSET -0.038217 0.005622 -0.058622
									CHANNELS 6 Xposition Yposition Zposition Xrotation Yrotation Zrotation
									JOINT middle.2.r
									{
										OFFSET -0.018656 0.000761 -0.027137
										CHANNELS 3 Xrotation Yrotation Zrotation
										JOINT middle.3.r
										{
											OFFSET -0.013921 0.000000 -0.024966
											CHANNELS 3 Xrotation Yrotation Zrotation
											End Site
											{
												OFFSET -0.018657 0.002284 -0.035511
											}
										}
									}
								}
								JOINT index.1.r
								{
									OFFSET -0.030221 -0.008419 -0.052973
									CHANNELS 6 Xposition Yposition Zposition Xrotation Yrotation Zrotation
									JOINT index.2.r
									{
										OFFSET -0.015991 -0.001523 -0.026523
										CHANNELS 3 Xrotation Yrotation Zrotation
										JOINT index.3.r
										{
											OFFSET -0.015991 -0.000761 -0.023478
											CHANNELS 3 Xrotation Yrotation Zrotation
											End Site
											{
												OFFSET -0.015991 0.000000 -0.031091
											}
										}
									}
								}
								JOINT thumb.1.r
								{
									OFFSET 0.000231 -0.020189 -0.000927
									CHANNELS 6 Xposition Yposition Zposition Xrotation Yrotation Zrotation
									JOINT thumb.2.r
									{
										OFFSET -0.017990 -0.019907 -0.028663
										CHANNELS 3 Xrotation Yrotation Zrotation
										End Site
										{
											OFFSET -0.014833 -0.018329 -0.023927
										}
									}
								}
							}
						}
					}
				}
			}
		}
		JOINT upperLeg.l
		{
			OFFSET 0.072245 0.019703 0.021128
			CHANNELS 6 Xposition Yposition Zposition Xrotation Yrotation Zrotation
			JOINT lowerLeg.l
			{
				OFFSET 0.003284 -0.040605 -0.330352
				CHANNELS 3 Xrotation Yrotation Zrotation
				JOINT ankle.l
				{
					OFFSET -0.003284 0.018125 -0.300539
					CHANNELS 3 Xrotation Yrotation Zrotation
					JOINT foot.l
					{
						OFFSET 0.000000 -0.036630 -0.051908
						CHANNELS 3 Xrotation Yrotation Zrotation
						End Site
						{
							OFFSET 0.000000 -0.128072 -0.006568
						}
					}
				}
			}
		}
		JOINT upperLeg.r
		{
			OFFSET -0.072245 0.019703 0.021128
			CHANNELS 6 Xposition Yposition Zposition Xrotation Yrotation Zrotation
			JOINT lowerLeg.r
			{
				OFFSET -0.003284 -0.040605 -0.330352
				CHANNELS 3 Xrotation Yrotation Zrotation
				JOINT ankle.r
				{
					OFFSET 0.003284 0.018125 -0.300539
					CHANNELS 3 Xrotation Yrotation Zrotation
					JOINT foot.r
					{
						OFFSET 0.000000 -0.036630 -0.051908
						CHANNELS 3 Xrotation Yrotation Zrotation
						End Site
						{
							OFFSET 0.000000 -0.128072 -0.006568
						}
					}
				}
			}
		}
	}
	JOINT elbowTarget.l
	{
		OFFSET 0.228700 0.549278 0.936960
		CHANNELS 6 Xposition Yposition Zposition Xrotation Yrotation Zrotation
		End Site
		{
			OFFSET -0.001542 0.069128 0.002999
		}
	}
	JOINT handIK.l
	{
		OFFSET 0.322822 0.018775 0.763744
		CHANNELS 6 Xposition Yposition Zposition Xrotation Yrotation Zrotation
		End Site
		{
			OFFSET 0.063774 0.014568 0.037212
		}
	}
	JOINT kneeTarget.l
	{
		OFFSET 0.075529 -0.787760 0.375529
		CHANNELS 6 Xposition Yposition Zposition Xrotation Yrotation Zrotation
		End Site
		{
			OFFSET 0.000000 -0.104887 -0.002914
		}
	}
	JOINT footIK.l
	{
		OFFSET 0.072245 0.009852 0.073412
		CHANNELS 6 Xposition Yposition Zposition Xrotation Yrotation Zrotation
		End Site
		{
			OFFSET 0.000000 0.134022 0.000000
		}
	}
	JOINT elbowTarget.r
	{
		OFFSET -0.228700 0.549278 0.936960
		CHANNELS 6 Xposition Yposition Zposition Xrotation Yrotation Zrotation
		End Site
		{
			OFFSET 0.001542 0.069128 0.002999
		}
	}
	JOINT handIK.r
	{
		OFFSET -0.322822 0.018775 0.763744
		CHANNELS 6 Xposition Yposition Zposition Xrotation Yrotation Zrotation
		End Site
		{
			OFFSET -0.063774 0.014568 0.037212
		}
	}
	JOINT kneeTarget.r
	{
		OFFSET -0.075529 -0.787760 0.375529
		CHANNELS 6 Xposition Yposition Zposition Xrotation Yrotation Zrotation
		End Site
		{
			OFFSET 0.000000 -0.104887 -0.002914
		}
	}
	JOINT footIK.r
	{
		OFFSET -0.072245 0.009852 0.073412
		CHANNELS 6 Xposition Yposition Zposition Xrotation Yrotation Zrotation
		End Site
		{
			OFFSET 0.000000 0.134022 0.000000
		}
	}
}
MOTION
Frames: 4
Frame Time: 0.041667
0.000000 0.000000 0.655843 -0.000000 0.000000 -0.000000 0.000000 0.000000 -0.000000 0.000000 0.000000 -0.000000 0.000000 0.000000 0.000000 -0.000000 0.000000 0.000000 0.049258 0.016419 0.064433 0.000000 -0.000000 -0.000000 6.383484 25.876981 -19.681906 -48.239639 11.274128 -26.807123 -0.000003 -0.000004 0.000000 0.032886 0.037117 -0.043691 0.000001 -0.000001 0.000004 -11.811945 36.261867 12.690695 -29.861102 55.746713 31.139433 0.040882 0.020425 -0.056191 0.000003 -0.000003 0.000004 -9.945459 32.617988 10.748903 -23.838912 51.365994 25.023931 0.038217 0.005622 -0.058622 0.000002 -0.000008 0.000003 -10.542756 33.839476 11.371611 -37.118410 59.505182 38.483984 0.030221 -0.008419 -0.052973 0.000002 -0.000004 0.000002 -20.164315 47.879541 21.277926 -33.480440 31.868642 18.749563 -0.000231 -0.020189 -0.000927 -0.000003 -0.000004 0.000005 0.000001 0.000003 -0.000002 -0.049258 0.016419 0.064433 -0.000000 -0.000000 0.000000 67.091985 -22.517682 10.168280 -61.705814 -18.401144 32.284545 -0.000002 0.000000 -0.000002 -0.032886 0.037117 -0.043691 0.000001 -0.000000 -0.000002 0.000000 -0.000002 0.000002 -0.000000 -0.000002 0.000001 -0.040882 0.020425 -0.056191 0.000000 -0.000000 -0.000001 -0.000001 -0.000003 -0.000001 -0.000001 0.000003 -0.000003 -0.038217 0.005622 -0.058622 -0.000001 0.000003 0.000001 0.000001 0.000003 -0.000001 -0.000000 -0.000001 0.000001 -0.030221 -0.008419 -0.052974 0.000001 0.000004 0.000002 -0.000002 -0.000000 0.000002 0.000000 -0.000002 -0.000001 0.000231 -0.020189 -0.000927 -0.000004 0.000004 0.000001 0.000003 0.000000 0.000001 0.072245 0.019703 0.021128 7.020399 -3.188922 0.193220 54.923184 5.225956 -2.958447 -0.000003 -0.000000 -0.000000 -0.000003 -0.000000 -0.000000 -0.072245 0.019703 0.021128 -11.510202 -0.427042 -0.836880 -6.483757 0.738352 0.015494 -0.000003 -0.000000 0.000000 -0.000006 -0.000000 0.000000 0.266720 0.549278 0.936960 -0.000000 0.000000 -0.000000 0.101591 -0.142121 0.780512 -0.000001 0.000001 -0.000000 0.075529 -0.787760 0.375529 0.000000 0.000000 -0.000000 0.072245 0.292291 0.218852 -0.000000 0.000000 -0.000000 -0.200597 0.549278 0.936960 -0.000000 0.000000 0.000000 -0.134894 0.148578 0.801266 -0.000001 -0.000001 -0.000000 -0.075529 -0.787760 0.375529 0.000000 -0.000000 -0.000000 -0.072245 -0.161556 0.069880 -0.000000 0.000000 -0.000000 
0.000000 0.000000 0.657242 -0.000000 0.000000 -0.000000 0.000000 0.000000 -0.000000 0.000000 0.000000 -0.000000 0.000000 0.000000 0.000000 -0.000000 0.000000 0.000000 0.049258 0.016419 0.064433 0.000000 -0.000000 -0.000000 6.383120 25.679095 -19.602556 -47.603744 10.973983 -26.514822 0.000003 -0.000002 0.000000 0.032886 0.037117 -0.043691 0.000003 0.000000 -0.000000 -11.811948 36.261864 12.690692 -29.861099 55.746710 31.139433 0.040882 0.020425 -0.056191 0.000003 0.000002 0.000002 -9.945462 32.617982 10.748907 -23.838914 51.365994 25.023935 0.038217 0.005622 -0.058622 0.000001 -0.000001 -0.000001 -10.542757 33.839476 11.371610 -37.118417 59.505189 38.483980 0.030221 -0.008419 -0.052973 0.000000 0.000001 0.000002 -20.164320 47.879544 21.277928 -33.480440 31.868645 18.749563 -0.000231 -0.020189 -0.000927 -0.000003 0.000003 0.000004 0.000001 0.000003 -0.000001 -0.049258 0.016419 0.064433 -0.000000 -0.000000 0.000000 66.172471 -22.522342 9.879341 -61.611851 -18.346940 32.251614 0.000001 0.000000 -0.000001 -0.032886 0.037117 -0.043691 0.000001 -0.000000 -0.000001 0.000002 0.000002 0.000003 -0.000001 0.000002 0.000003 -0.040882 0.020425 -0.056191 -0.000001 -0.000000 -0.000000 0.000000 0.000002 -0.000002 -0.000000 -0.000002 -0.000001 -0.038217 0.005622 -0.058622 -0.000001 0.000005 -0.000000 -0.000001 -0.000001 0.000000 0.000000 0.000003 -0.000001 -0.030221 -0.008419 -0.052973 -0.000001 0.000003 0.000002 -0.000002 0.000006 -0.000001 0.000001 0.000000 0.000001 0.000231 -0.020189 -0.000927 -0.000005 -0.000001 -0.000001 -0.000005 -0.000000 0.000004 0.072245 0.019703 0.021128 6.422275 -3.207147 0.184632 55.264611 5.246889 -2.990982 -0.000005 0.000000 -0.000000 0.000000 -0.000000 -0.000000 -0.072245 0.019703 0.021128 -12.352180 -0.266777 -0.848186 -3.860827 0.439925 -0.000834 -0.000005 0.000000 -0.000000 0.000006 0.000000 -0.000000 0.266720 0.549278 0.936960 -0.000000 0.000000 -0.000000 0.103230 -0.140921 0.779447 -0.000001 0.000001 -0.000000 0.075529 -0.787760 0.375529 0.000000 0.000000 -0.000000 0.072245 0.288244 0.219050 -0.000000 0.000000 -0.000000 -0.200597 0.549278 0.936960 -0.000000 0.000000 0.000000 -0.135812 0.145299 0.800778 -0.000001 -0.000001 -0.000000 -0.075529 -0.787760 0.375529 0.000000 -0.000000 -0.000000 -0.072245 -0.157110 0.070674 -0.000000 0.000000 -0.000000 
0.000000 0.000000 0.661440 -0.000000 0.000000 -0.000000 0.000000 0.000000 -0.000000 0.000000 0.000000 -0.000000 0.000000 0.000000 0.000000 -0.000000 0.000000 0.000000 0.049258 0.016419 0.064433 0.000000 -0.000000 -0.000000 6.378458 25.116757 -19.367768 -45.653637 10.076299 -25.602068 0.000003 -0.000000 0.000002 0.032886 0.037117 -0.043691 -0.000002 -0.000003 0.000000 -11.811948 36.261860 12.690695 -29.861099 55.746717 31.139437 0.040882 0.020425 -0.056191 0.000001 0.000002 0.000001 -9.945459 32.617982 10.748908 -23.838921 51.365997 25.023923 0.038217 0.005622 -0.058622 -0.000003 -0.000003 -0.000002 -10.542757 33.839472 11.371614 -37.118410 59.505189 38.483987 0.030221 -0.008419 -0.052973 -0.000004 0.000004 -0.000003 -20.164310 47.879541 21.277930 -33.480443 31.868652 18.749557 -0.000231 -0.020189 -0.000927 -0.000001 0.000000 -0.000000 -0.000003 0.000002 0.000002 -0.049258 0.016419 0.064433 -0.000000 -0.000000 0.000000 63.329603 -22.510567 9.065955 -61.227913 -18.125990 32.116219 -0.000000 -0.000001 -0.000001 -0.032886 0.037117 -0.043691 0.000001 0.000003 -0.000003 0.000002 -0.000004 0.000001 -0.000002 -0.000003 0.000001 -0.040882 0.020425 -0.056191 0.000001 -0.000000 -0.000001 -0.000000 -0.000001 0.000001 -0.000002 -0.000002 0.000001 -0.038217 0.005622 -0.058622 0.000002 0.000005 -0.000000 0.000004 0.000003 -0.000001 0.000001 0.000003 0.000001 -0.030221 -0.008419 -0.052973 0.000003 0.000002 0.000001 -0.000003 0.000008 -0.000002 -0.000001 0.000002 -0.000002 0.000231 -0.020189 -0.000927 -0.000001 0.000003 -0.000001 0.000004 -0.000005 0.000002 0.072245 0.019703 0.021128 4.582617 -3.261321 0.158831 56.282330 5.308122 -3.088688 -0.000003 -0.000001 -0.000000 -0.000001 -0.000000 0.000000 -0.072245 0.019703 0.021128 -13.359650 0.023625 -0.858243 0.885342 -0.100786 0.004385 -0.000002 0.000000 0.000000 -0.000001 0.000000 0.000000 0.266720 0.549278 0.936960 -0.000000 0.000000 -0.000000 0.108161 -0.137071 0.776309 -0.000001 0.000001 -0.000000 0.075529 -0.787760 0.375529 0.000000 0.000000 -0.000000 0.072245 0.275693 0.219643 -0.000000 0.000000 -0.000000 -0.200597 0.549278 0.936960 -0.000000 0.000000 0.000000 -0.138558 0.135205 0.799261 -0.000001 -0.000001 -0.000000 -0.075529 -0.787760 0.375529 0.000000 -0.000000 -0.000000 -0.072245 -0.143360 0.073186 -0.000000 0.000000 -0.000000 
0.000000 0.000000 0.668181 -0.000000 0.000000 -0.000000 0.000000 0.000000 -0.000000 0.000000 0.000000 -0.000000 0.000000 0.000000 0.000000 -0.000000 0.000000 0.000000 0.049258 0.016419 0.064433 0.000000 -0.000000 -0.000000 6.282584 24.319358 -19.009771 -42.292600 8.611952 -23.974295 0.000002 -0.000004 0.000004 0.032886 0.037117 -0.043691 0.000001 0.000000 0.000003 -11.811949 36.261864 12.690686 -29.861106 55.746713 31.139433 0.040882 0.020425 -0.056191 0.000002 -0.000003 0.000002 -9.945461 32.617988 10.748904 -23.838919 51.366001 25.023928 0.038217 0.005622 -0.058622 0.000001 -0.000001 0.000002 -10.542754 33.839472 11.371613 -37.118424 59.505189 38.483984 0.030221 -0.008419 -0.052973 0.000001 0.000003 -0.000001 -20.164317 47.879541 21.277930 -33.480447 31.868645 18.749552 -0.000231 -0.020189 -0.000927 -0.000001 -0.000003 0.000007 -0.000002 0.000003 -0.000000 -0.049258 0.016419 0.064433 -0.000000 -0.000000 0.000000 58.557350 -22.410438 7.934790 -60.284452 -17.586923 31.777739 -0.000001 0.000002 0.000002 -0.032886 0.037117 -0.043691 0.000001 0.000002 -0.000000 0.000002 0.000003 0.000002 -0.000001 -0.000002 -0.000000 -0.040882 0.020425 -0.056191 -0.000001 0.000001 -0.000003 -0.000000 0.000001 -0.000003 -0.000002 -0.000000 -0.000000 -0.038217 0.005622 -0.058622 -0.000001 0.000005 -0.000001 0.000002 0.000001 -0.000001 -0.000003 0.000001 -0.000001 -0.030221 -0.008419 -0.052973 0.000000 0.000000 0.000001 -0.000000 0.000008 -0.000000 -0.000002 -0.000005 0.000003 0.000231 -0.020189 -0.000927 -0.000006 0.000000 -0.000001 0.000004 -0.000000 -0.000003 0.072245 0.019703 0.021128 1.542283 -3.343329 0.118976 57.830638 5.397919 -3.239368 0.000000 0.000000 0.000000 0.000002 0.000000 0.000000 -0.072245 0.019703 0.021128 -13.557290 0.318991 -0.854539 5.715277 -0.648632 0.055605 -0.000003 0.000000 -0.000000 -0.000000 -0.000000 0.000000 0.266720 0.549278 0.936960 -0.000000 0.000000 -0.000000 0.116106 -0.130297 0.771407 -0.000001 0.000001 -0.000000 0.075529 -0.787760 0.375529 0.000000 0.000000 -0.000000 0.072245 0.254564 0.220595 -0.000000 0.000000 -0.000000 -0.200597 0.549278 0.936960 -0.000000 0.000000 0.000000 -0.142953 0.118383 0.796692 -0.000001 -0.000001 -0.000000 -0.075529 -0.787760 0.375529 0.000000 -0.000000 -0.000000 -0.072245 -0.120304 0.077537 -0.000000 0.000000 -0.000000 
